<svg width="580" height="400" xmlns="http://www.w3.org/2000/svg">
 <!-- Created with Method Draw - http://github.com/duopixel/Method-Draw/ -->
 <g>
  <title>background</title>
  <rect fill="#fff" id="canvas_background" height="402" width="582" y="-1" x="-1"/>
  <g display="none" overflow="visible" y="0" x="0" height="100%" width="100%" id="canvasGrid">
   <rect fill="url(#gridpattern)" stroke-width="0" y="0" x="0" height="100%" width="100%"/>
  </g>
 </g>
 <g>
  <title>Layer 1</title>
  <path d="m295.5,79.043747c0,0 0,0 -1,0c-1,0 -2,0 -2,0c-2,0 -2,0 -4,0c0,0 -2,-1 -4,-1c-2,0 -2,-1 -3,-1c-1,0 -2.026764,0.229752 -3,0c-2.176239,-0.513741 -5,-1 -6,-1c-2,0 -3,0 -5,0c-2,0 -3,0 -3,0c-2,0 -4.080261,-0.689262 -7,0c-2.176254,0.513741 -4,1 -5,1c-1,0 -2.878555,0.493462 -6,1c-1.974182,0.320366 -3,0 -5,0c-3,0 -6,1 -8,1c-2,0 -4,0 -7,1c-3,1 -5,1 -8,1c-2,0 -3,1 -4,1c-2,0 -6,1 -8,1c0,0 -0.026749,-0.229752 -1,0c-2.176254,0.513741 -3.152237,1.234634 -5,2c-1.306564,0.541199 -2,2 -3,2c0,0 -0.097885,0.824432 -2,2c-0.850647,0.525734 -2.292892,1.292892 -3,2c-0.707108,0.707108 -2.186005,-0.307449 -4,1c-1.147263,0.826904 -2.824432,1.097885 -4,3c-0.525726,0.850655 -2,2 -2,2c-1,0 -2,1 -3,2c-1,1 -2.418854,2.418861 -4,4c-1.581146,1.581139 -3,2 -4,3c-1,1 -2.292892,1.292892 -3,2c-0.707108,0.707108 -2.917603,2.386871 -4,5c-0.38269,0.923882 -1.292892,2.292892 -2,3c-0.707108,0.707108 -1.234634,1.152245 -2,3c-0.541199,1.306564 -2.917603,1.386871 -4,4c-0.765366,1.847755 -1.458801,3.693436 -2,5c-0.38269,0.923874 -0.458801,2.693436 -1,4c-0.765366,1.847763 0,3 0,5c0,1 -0.458801,2.693436 -1,4c-0.765366,1.847763 0,3 0,4c0,3 -0.234634,4.152237 -1,6c-0.541199,1.306564 -1,2 -1,4c0,1 0,3 0,4c0,0 0,0 0,2c0,2 -1,2 -1,4c0,2 0,2 0,3c0,1 0,2 0,2c0,2 0.458801,3.693436 1,5c0.765366,1.847763 -0.38269,3.076126 0,4c1.082397,2.613129 1.234634,4.152237 2,6c0.541199,1.306564 2,2 2,4c0,1 0.346191,1.70546 2,4c1.307449,1.813995 2,4 2,5c0,0 0.917603,0.386871 2,3c0.38269,0.923874 1.486252,1.823746 2,4c0.229752,0.973251 3,4 4,6c1,2 1.71022,2.042908 2,3c1.04483,3.450851 3.346191,4.70546 5,7c1.307449,1.813995 2,4 3,5c1,1 1.474274,2.149353 2,3c1.175568,1.902115 1.692551,2.186005 3,4c0.826904,1.147263 3,3 4,5c1,2 1.418854,1.418854 3,3c1.581146,1.581146 1,3 3,5c2,2 3.418854,2.418854 5,4c1.581146,1.581146 2.692551,3.186005 4,5c0.826904,1.147293 2.173096,0.852753 3,2.000015c1.307449,1.813995 2.346191,1.705475 4,4c1.307449,1.813995 3.693436,3.458801 5,4c1.847763,0.765381 2.852737,2.173096 4,3c1.813995,1.307465 4,2 6,3c2,1 4,2 6,3c2,1 4.152237,1.234619 6,2c1.306564,0.541199 2.014984,0.755646 4,1c4.092209,0.503784 7.029968,1.511261 11,2c4.092209,0.503784 5.878555,1.493469 9,2c2.961273,0.48056 6,0 9,1c3,1 7,1 9,1c2,0 5,0 8,0c2,0 4.878571,0.493469 8,1c0.987091,0.160187 3,0 6,0c3,0 6,0 10,0c2,0 5,0 8,0c2,0 4.878571,-0.493469 8,-1c0.987091,-0.160187 4.041321,0.152771 8,-1c3.036163,-0.884125 6,-1 9,-2c3,-1 5.878571,-1.493469 9,-2c2.961273,-0.48056 7.038727,-0.51944 10,-1c3.121429,-0.506531 5.823761,-2.486267 8,-3c1.946503,-0.459503 3,0 5,-1c2,-1 4,-2 6,-3c2,-1 5,-2 7,-3c2,-1 3.386871,-2.917603 6,-4c1.847748,-0.765381 4,-1 6,-2c2,-1 4.186005,-1.692535 6,-3c1.147278,-0.826904 3.149353,-2.474289 4,-3.000015c1.9021,-1.175568 2.418854,-2.418854 4,-4c1.581146,-1.581146 2.186005,-3.692551 4,-5c2.294525,-1.653809 4,-3 5,-5c1,-2 3,-4 4,-5c1,-1 3,-3 5,-5c2,-2 2.692535,-4.186005 4,-6c0.826904,-1.147263 2,-2 3,-4c1,-2 1.824432,-3.097885 3,-5c1.577179,-2.551956 1.144287,-4.934143 2,-7c1.210144,-2.92157 1.789856,-5.07843 3,-8c0.855713,-2.065857 3,-4 3,-6c0,-2 1,-2 1,-3c0,-2 0,-5 0,-8c0,-3 0.496216,-6.907791 1,-11c0.366547,-2.977524 0.160187,-6.012909 0,-7c-0.506531,-3.121445 -1.31073,-5.080246 -2,-8c-0.513733,-2.176254 -1.458801,-4.693436 -2,-6c-0.38269,-0.923874 -0.61731,-3.076126 -1,-4c-0.541199,-1.306564 -1.61731,-3.076126 -2,-4c-0.541199,-1.306564 -1.173096,-1.852737 -2,-3c-1.307465,-1.813995 -2,-3 -3,-4c-2,-2 -2,-4 -3,-5c-1,-1 -1.692535,-3.186005 -3,-5c-0.826904,-1.14727 -1.61731,-2.076118 -2,-3c-0.541199,-1.306564 -2.292908,-2.292892 -3,-3c-1.414215,-1.414215 -0.61731,-2.076118 -1,-3c-0.541199,-1.306564 -2,-3 -2,-3c-2,-2 -2.852722,-3.173096 -4,-4c-1.813995,-1.307449 -3.076111,-2.617317 -4,-3c-1.306549,-0.541199 -2.186005,-1.692551 -4,-3c-1.147278,-0.826904 -2.852722,-1.173096 -4,-2c-1.813995,-1.307449 -3.186005,-1.692551 -5,-3c-1.147278,-0.826904 -3.186005,-0.692551 -5,-2c-1.147278,-0.826904 -2.152252,-1.234634 -4,-2c-1.306549,-0.541199 -2.186005,-1.692551 -4,-3c-1.147278,-0.826904 -2.152252,-1.234634 -4,-2c-1.306549,-0.541199 -2.186005,-1.692551 -4,-3c-1.147278,-0.826904 -1.693451,-1.458801 -3,-2c-0.923889,-0.382683 -2.076111,-0.617317 -3,-1c-1.306549,-0.541199 -1.693451,-1.458801 -3,-2c-0.923889,-0.382683 -1.693451,-0.458801 -3,-1c-0.923889,-0.382683 -2,-1 -3,-1c-1,0 -2,-1 -2,-1c-1,0 -2,0 -3,0c-1,0 -2,-1 -2,-1c-2,0 -3,0 -4,0c-2,0 -2.292908,0.707108 -3,0c-0.707092,-0.707108 -1,-1 -1,-1c-2,0 -3,0 -4,0c-1,0 -1,0 -2,-1c0,0 -1,0 -2,0c0,0 -2,0 -2,0c-2,0 -2,0 -3,0c0,0 -1,0 -3,0c-1,0 -2,0 -4,0c0,0 -1,0 -2,0c-1,0 -2,0 -2,0c-1,0 -1,0 -2,0c-1,0 -2,0 -3,0c-1,0 -1,0 -2,0c-1,0 -3,0 -4,0c-1,0 -3,0 -3,0c-1,0 -2,0 -3,0c-1,0 -1,0 -2,0c-1,0 -1,0 -2,0c-1,0 -3,0 -3,0c-1,0 -1.292908,0.292892 -2,1c-1.414215,1.414215 -2,0 -3,0l-1,0l-1,0l-1,0" id="svg_4" stroke-width="1.5" stroke="#000" fill="none"/>
  <polyline stroke-linecap="round" id="svg_5" points="295,78.4 295,78.4 " stroke-width="1.5" stroke="#000" fill="none"/>
  <polyline stroke-linecap="round" id="svg_7" points="296,76.4 296,76.4 " stroke-width="1.5" stroke="#000" fill="none"/>
 </g>
</svg>